<?xml version="1.0" encoding="UTF-8"?>
<svg width="16" height="16" viewBox="0 0 16 16" fill="none" xmlns="http://www.w3.org/2000/svg">
    <!-- 主要八个方向 -->
    <path d="M8 1v14M1 8h14M3.5 3.5l9 9M12.5 3.5l-9 9" 
          stroke="currentColor"
          stroke-width="1"
          stroke-linecap="round"/>
    <!-- 装饰性分支 -->
    <path d="M8 1l1.2 2L8 5M8 1l-1.2 2L8 5M8 15l1.2-2L8 11M8 15l-1.2-2L8 11
             M1 8l2-1.2L5 8M1 8l2 1.2L5 8M15 8l-2-1.2L11 8M15 8l-2 1.2L11 8
             M3.5 3.5l2 0.8l1 2M3.5 3.5l0.8 2l2 1
             M12.5 12.5l-2-0.8l-1-2M12.5 12.5l-0.8-2l-2-1
             M12.5 3.5l-2 0.8l-1 2M12.5 3.5l-0.8 2l-2 1
             M3.5 12.5l2-0.8l1-2M3.5 12.5l0.8-2l2-1"
          stroke="currentColor"
          stroke-width="0.6"
          stroke-linecap="round"/>
    <!-- 中心装饰 -->
    <circle cx="8" cy="8" r="1" fill="currentColor"/>
    <circle cx="8" cy="8" r="0.4" fill="white"/>
</svg> 