<svg t="1716200000000" class="icon" viewBox="0 0 1024 1024" version="1.1" xmlns="http://www.w3.org/2000/svg" width="16" height="16">
  <path d="M256 192a64 64 0 1 1 128 0 64 64 0 1 1-128 0zm192-96a64 64 0 1 1 128 0 64 64 0 1 1-128 0zm192 96a64 64 0 1 1 128 0 64 64 0 1 1-128 0zM192 384a64 64 0 1 1 0-128 64 64 0 1 1 0 128zm640-64a64 64 0 1 1 0 128 64 64 0 1 1 0-128zM512 448c-176 0-320 143.2-320 320 0 70.4 57.6 128 128 128h384c70.4 0 128-57.6 128-128 0-176.8-144-320-320-320z" fill="none" stroke="currentColor" stroke-width="64" stroke-linecap="round" stroke-linejoin="round"/>
</svg> 