<svg t="1716200000000" class="icon" viewBox="0 0 1024 1024" version="1.1" xmlns="http://www.w3.org/2000/svg" p-id="1234" width="16" height="16">
  <path d="M923.2 218.7c-54.2-46.2-123.2-71.7-196.2-71.7-73 0-142 25.5-196.2 71.7-54.2-46.2-123.2-71.7-196.2-71.7-73 0-142 25.5-196.2 71.7C44.2 264.9 16 326.2 16 392.2c0 66.1 28.2 127.3 78.6 173.5l384.2 353.2c6.2 5.7 14.2 8.6 22.2 8.6s16-2.9 22.2-8.6l384.2-353.2c50.4-46.2 78.6-107.4 78.6-173.5 0-66-28.2-127.3-78.6-173.5z" fill="none" stroke="currentColor" stroke-width="48" stroke-linecap="round" stroke-linejoin="round"></path>
</svg> 